<!--?xml version="1.0" encoding="utf-8"?-->
<!-- Generator: Adobe Illustrator 19.1.1, SVG Export Plug-In . SVG Version: 6.00 Build 0)  -->
<svg version="1.1" id="_x31_0" xmlns="http://www.w3.org/2000/svg" xmlns:xlink="http://www.w3.org/1999/xlink" x="0px" y="0px" viewBox="0 0 512 512" style="width: 256px; height: 256px; opacity: 1;" xml:space="preserve">
<style type="text/css">
	.st0{fill:#374149;}
</style>
<g>
	<path class="st0" d="M222.204,433.164h-9.379c-3.386,0-6.144,2.758-6.144,6.144v0.317v24.66c0,3.39,2.758,6.148,6.144,6.148h9.379
		c3.386,0,6.144-2.758,6.144-6.148v-24.977c0-0.945-0.238-1.812-0.55-2.598C226.774,434.582,224.646,433.164,222.204,433.164z" style="fill: rgb(255, 140, 0);"></path>
	<path class="st0" d="M144.751,272.981c0-20.016-21.039-36.164-46.961-36.164c-25.922,0-46.961,16.148-46.961,36.164
		c0,19.933,21.038,36.164,46.961,36.164C123.712,309.145,144.751,292.914,144.751,272.981z M84.79,282.672
		c-11.188,0-20.328-7.012-20.328-15.602c0-8.668,9.14-15.602,20.328-15.602c11.187,0,20.25,6.934,20.25,15.602
		C105.04,275.66,95.978,282.672,84.79,282.672z" style="fill: rgb(255, 140, 0);"></path>
	<polygon class="st0" points="132.54,355.941 132.54,356.024 132.54,356.184 183.911,356.184 183.911,328.684 132.54,328.684 	" style="fill: rgb(255, 140, 0);"></polygon>
	<path class="st0" d="M268.258,158.653h-36.957c-7.59,0-13.746,6.156-13.746,13.75s6.157,13.75,13.746,13.75h36.957
		c7.594,0,13.746-6.157,13.746-13.75S275.852,158.653,268.258,158.653z" style="fill: rgb(255, 140, 0);"></path>
	<path class="st0" d="M504.117,74.427c-3.702-2.207-7.246-4.649-11.109-6.699c-3.782-2.129-7.641-4.176-11.582-6.066
		c-3.859-2.047-7.957-3.703-12.054-5.438c-4.098-1.652-8.191-3.23-12.527-4.57c-4.254-1.34-8.586-2.519-13-3.465
		c-4.414-1.023-8.906-1.734-13.394-2.363l-6.856-0.633l-6.855-0.313l-6.934,0.078l-6.934,0.55c-4.57,0.551-9.218,1.262-13.707,2.286
		c-4.492,1.102-8.984,2.363-13.32,4.019c-4.332,1.574-8.586,3.387-12.683,5.434c-2.68,1.34-5.36,2.84-7.879,4.492
		c-1.519-1.519-3.164-2.835-4.718-4.281c-0.958-0.894-1.922-1.77-2.867-2.606c-1.477-1.305-2.86-2.746-4.391-3.984
		C314.704,27.309,278.462,14.86,238.673,14.86c-44.52,0-80.45,15.129-93.766,21.668c-7.722,3.781-14.652,7.718-20.879,11.816
		c-24.66-9.297-74.534-23.007-113.855-1.179c-4.488,2.519-11.738,9.137-8.746,24.816c3.703,19.543,32.938,80.922,58.23,99.121
		c-1.891,10.558-4.02,22.062-6.778,34.434c-29.863,19.778-67.523,53.34-47.039,130.949c11.898,45.07,47.434,78.164,97.938,94.078
		l0.711,5.359c0.078,0.394,0.078,0.945,0.156,1.496c0.16,2.523,0.394,5.988,1.813,9.297c1.496,3.39,4.019,5.516,5.515,6.778
		l0.551,0.55c3.781,3.782,7.406,7.094,11.187,10.242c5.91,4.809,12.214,9.062,18.754,12.843c7.562,4.336,15.442,8.039,23.715,10.954
		c11.031,4.015,22.613,6.778,34.511,8.117c7.406,0.786,14.813,1.102,22.379,0.863c5.672-0.156,11.5-0.629,17.254-1.418
		c5.199-0.707,10.402-1.734,15.519-2.914c7.25-1.734,14.344-4.019,21.196-6.777c3.785-1.496,7.406-3.153,11.031-4.883
		c7.015-3.469,13.789-7.566,20.094-12.058c7.09-5.121,13.71-10.793,19.855-16.938c9.535-9.691,17.809-20.722,24.27-32.542
		c4.176-7.641,2.836-14.813,1.809-20.012c-0.234-1.023-0.391-2.047-0.551-3.074l-0.156-1.34l58.465-5.828
		c3.859-0.71,5.277-5.515,2.519-8.273l-12.844-12.371l7.958-19.539c1.214-3.215-1.184-6.394-4.394-6.457
		c-0.016,0-0.028-0.012-0.047-0.012c-0.012,0-0.027,0.004-0.039,0.004c-0.301,0-0.562-0.137-0.875-0.074l-7.55,1.942l-5.52,1.305
		c23.614-34.618,33.203-77.695,28.434-128.25c-0.129-1.422-0.152-2.786-0.301-4.215c2.199,0,4.325-0.082,5.973-0.16
		c6.149-0.394,11.898-1.34,17.73-3.23c5.75-1.813,11.344-4.332,16.469-7.485c10.242-6.382,18.594-14.969,25.054-24.109
		c6.462-9.141,11.266-18.91,14.969-28.84c7.328-19.934,10.875-40.183,12.055-60.746L512,79.153L504.117,74.427z M84.689,180.348
		c0.078-0.797,0.164-1.59,0.254-2.387c0.222-1.976,0.465-3.961,0.793-5.992c0.629-4.41,1.418-8.824,2.52-13.316h4.492h1.496h24.938
		c7.594,0,13.75,6.156,13.75,13.75s-6.156,13.75-13.75,13.75H87.704h-3.438l-0.027-0.004
		C84.337,184.251,84.505,182.305,84.689,180.348z M240.169,464.285c0,9.93-8.039,17.965-17.965,17.965h-9.379
		c-9.926,0-17.965-8.035-17.965-17.965V440.57v-1.262c0-6.066,2.996-11.343,7.566-14.574c0.535-0.394,1.122-0.722,1.699-1.05
		c0.43-0.242,0.863-0.465,1.309-0.668c1.226-0.57,2.527-1,3.886-1.278c0.469-0.094,0.946-0.168,1.422-0.226
		c0.687-0.078,1.374-0.168,2.082-0.168h9.379c1.179,0,2.363,0.082,3.465,0.394c6.699,1.262,12.054,6.305,13.867,12.766
		c0.394,1.496,0.633,3.153,0.633,4.805V464.285z M469.293,138.325c-2.914,7.957-6.461,15.523-10.874,22.062
		c-4.41,6.539-9.61,11.976-15.52,15.836c-2.992,1.89-6.066,3.39-9.374,4.492c-3.234,1.262-7.016,1.812-10.325,2.207
		c-2.441,0.156-4.886,0.394-6.617,0.394l-2.207,0.078h-3.859c-3.863,0-7.801-0.078-11.742-0.316c-0.55,0-1.023-0.078-1.574-0.078
		c-2.285-0.078-4.57-0.238-6.855-0.394c-2.285-0.156-4.57-0.234-6.855-0.473l-0.551-0.078l-13.394-0.946
		c-9.297-0.789-18.832-1.578-28.285-1.969h-0.16c-1.024-0.082-2.047,0.078-2.993,0.629c-1.656,0.551-3.074,1.813-3.941,3.465
		c-1.813,3.707-0.313,8.118,3.312,9.93c4.566,2.207,9.058,4.098,13.629,5.91c4.649,1.734,9.297,3.386,13.946,4.805
		c4.726,1.496,9.457,2.836,14.262,3.942c2.914,0.785,5.832,1.418,8.824,2.046c3.649,26.824,2.817,50.226-1.683,70.652
		c-0.062,0.274-0.129,0.543-0.191,0.821c-0.688,3.035-1.458,6.004-2.305,8.906c-0.145,0.496-0.301,0.988-0.454,1.48
		c-0.82,2.707-1.703,5.363-2.66,7.957c-0.203,0.543-0.414,1.074-0.621,1.614c-0.985,2.558-2.02,5.078-3.133,7.531
		c-0.199,0.442-0.414,0.879-0.618,1.317c-1.195,2.562-2.445,5.074-3.781,7.515c-0.118,0.218-0.242,0.434-0.363,0.649
		c-9.126,16.488-21.363,30.32-35.958,41.894l-4.175,3.23c-19.539,14.574-43.02,25.449-68.551,33.484
		c-29.546,9.301-59.094,13.789-86.59,13.789c-21.906,0-42.546-2.836-60.984-8.351c-0.078,0-0.16,0-0.238-0.078l-16.938-6.934
		l0.118,0.703l-0.012,0.219c-32.199-13.559-55.582-36.473-63.769-67.582c-3.703-13.98-4.973-26.617-4.414-37.836
		c0.031-0.538,0.098-1.054,0.133-1.586c0.141-2.106,0.324-4.18,0.59-6.183c0.168-1.242,0.406-2.43,0.622-3.637
		c0.226-1.29,0.434-2.594,0.71-3.836c0.294-1.29,0.653-2.516,0.993-3.762c0.316-1.141,0.605-2.305,0.965-3.402
		c0.32-0.989,0.695-1.922,1.046-2.875c0.496-1.332,0.977-2.676,1.535-3.938c0.215-0.492,0.461-0.953,0.684-1.438
		c7.469-15.941,19.629-26.054,32.117-29.602c0,0,110.625-21.117,112.121-96.281c0.867-40.973,21.668-73.75,31.754-87.226
		c7.958-1.179,16.153-1.809,24.586-1.809c27.32,0,56.254,6.84,81.594,26.106c0.133,0.102,0.27,0.184,0.398,0.286
		c3.339,2.558,6.602,5.386,9.804,8.394c0.25,0.238,0.524,0.438,0.774,0.676l-0.703,0.702c-3.07,3.231-6.378,6.301-8.586,10.242
		c-1.023,1.969-1.89,4.176-2.363,6.699c-0.551,2.52-0.317,4.883,0.313,7.879c0.55,2.442,2.206,4.41,4.414,5.277
		c0.946,0.473,2.047,0.633,3.153,0.551h0.312c3.074-0.234,5.516-1.262,7.566-1.89c1.969-0.707,3.625-1.574,5.199-2.758
		c0.778-0.57,1.414-1.285,2.125-1.918c0.066-0.058,0.133-0.121,0.199-0.18c0.586-0.539,1.262-0.992,1.774-1.606
		c1.262-1.179,2.363-2.285,3.625-3.386c0.078-0.156,0.234-0.238,0.317-0.316c3.621-3.309,7.484-6.462,11.5-9.219
		c1.89-1.34,3.781-2.519,5.754-3.703c2.52-1.418,4.965-2.758,7.562-3.938c0.551-0.316,1.184-0.633,1.813-0.867
		c3.152-1.418,6.461-2.602,9.77-3.625c3.312-1.106,6.699-1.812,10.086-2.442c3.391-0.633,6.856-1.023,10.321-1.262l5.202-0.078
		l5.199,0.078l5.2,0.473l5.281,0.711c3.465,0.55,6.934,1.258,10.398,2.203c3.469,0.867,6.938,1.89,10.324,3.152
		c3.465,1.106,6.856,2.52,10.242,3.942c3.309,1.496,6.695,2.992,10.008,4.726c3.308,1.652,6.539,3.465,9.77,5.438
		c0.55,0.313,1.023,0.55,1.574,0.946C477.094,110.907,474.098,125.247,469.293,138.325z" style="fill: rgb(255, 140, 0);"></path>
	<path class="st0" d="M445.5,111.931c-14.5-4.965-37.035-2.442-54.367,1.023c-5.832,1.106-11.109,2.363-15.206,3.469h-0.082
		c-3.305,0.945-3.621,5.594-0.39,6.855c1.418,0.551,2.914,1.18,4.57,1.73c5.199,1.813,11.582,3.703,18.594,4.809
		c15.679,2.68,34.274,1.574,48.14-12.054C448.57,115.95,447.942,112.72,445.5,111.931z" style="fill: rgb(255, 140, 0);"></path>
</g>
</svg>
